<svg width="102" height="100" viewBox="0 0 102 100" fill="none" xmlns="http://www.w3.org/2000/svg">
<path d="M93.4528 100V80.8511H87.7925M57.6038 100V80.8511H63.2641M87.7925 80.8511V71.2767L101 57.447V10.6387C98.4843 7.0926 92.8868 2.12808 90.6226 10.6387C90.6226 20.0001 89.9143 30.4965 89.9143 32.9788M87.7925 80.8511H63.2641M63.2641 80.8511V53.1914L80.2453 32.9788C86.2201 31.2056 96.0943 30.6382 87.7925 42.5532L80.2453 53.1914M44.3962 100V80.8511H14.2075M8.54717 100V80.8511H14.2075M38.7358 77.6594V53.1914L21.7547 32.9788C16.7233 31.2056 8.16981 30.6382 14.2075 42.5532L21.7547 53.1914M14.2075 80.8511V71.2767L1 57.447V10.6387C2.57233 6.73807 6.84906 1.27721 11.3774 10.6387L12.1365 36.17" stroke="#4A94CC" stroke-width="2"/>
<path fill-rule="evenodd" clip-rule="evenodd" d="M48.7411 0.454758C47.7069 0.953667 47.4681 1.50035 47.3179 3.71396C47.226 5.06358 47.1816 5.10977 45.4173 5.69283C41.6579 6.93583 39.2161 9.75433 39.2161 12.8519C39.2161 16.6837 41.2839 18.4459 49.3298 21.47C54.9203 23.5713 56.545 24.6719 56.8657 26.5742C57.2511 28.8641 54.9289 30.6158 51.1549 30.8822C48.3642 31.0793 46.7513 30.6668 43.4869 28.9214C42.0188 28.1361 40.402 27.4917 39.8941 27.4889C38.726 27.4822 37.7925 28.3826 37.7925 29.5158C37.7925 31.7089 41.3092 33.9019 46.4231 34.8978C47.3435 35.0769 47.4019 35.1901 47.4019 36.7963C47.4019 38.9634 47.6094 39.4209 48.8511 39.9916C50.2559 40.6377 51.125 40.5706 52.2215 39.7325C53.013 39.127 53.196 38.6756 53.3529 36.9403L53.5398 34.8703L55.0271 34.5166C59.052 33.5596 62.0373 30.4712 62.2857 27.0067C62.4733 24.3866 61.9334 23.0604 60.0503 21.5178C58.2626 20.0527 56.5831 19.2621 51.1513 17.3266C44.9842 15.1294 43.2328 13.1103 45.4561 10.7613C46.6466 9.50377 48.3653 9.03966 51.2894 9.18677C53.3921 9.29212 53.974 9.47245 55.9976 10.6443C58.5438 12.1189 59.8499 12.3055 60.9262 11.3488C62.832 9.65468 60.6112 7.14305 55.9866 5.76211L53.6302 5.05851L53.4024 3.23467C53.0508 0.417427 51.1584 -0.71105 48.7411 0.454758Z" fill="#4A94CC"/>
<ellipse cx="51" cy="53.1913" rx="42.4528" ry="46.8083" fill="#4A94CC" fill-opacity="0.3"/>
</svg>
